# xmcd
#
# Track frame offsets:
#	150
#	23541
#	62390
#	73998
#	83546
#	97182
#	113072
#	127621
#	143421
#	152302
#	166827
#	176447
#	188738
#	204878
#	218781
#	229504
#	241183
#	256274
#	268706
#	279121
#
# Disc length: 3908
#
# Revision: 2
# Processed by: cddbd v1.5.1PL0 Copyright (c) Steve Scherf et al.
# Submitted via: VOLTOCDX V1.0.22 
# Normalized: r1:DSETVAR1,TDELIM( - )
#
DISCID=f00f4214
DTITLE=Various Artist - Let's Folk [CD2]
DYEAR=2004
DGENRE=country
TTITLE0=Simon and Garfunkel - The Boxer
TTITLE1=Don Mclean - American Pie
TTITLE2=The Byrds - Mr Tambourine Man
TTITLE3=Glen Campbell and Bobbie Gentry - Let it be me
TTITLE4=Johnny Cash - If I were a carpenter
TTITLE5=Andy Williams - El Condor Pasa (If I Could)
TTITLE6=The Sandpipers - Guantanamera
TTITLE7=Brothers Four - Puff The Magic Dragon
TTITLE8=Pete Seeger - Where have all the flowers gone
TTITLE9=Johnny Cash - Danny Boy
TTITLE10=John Davidson - Today
TTITLE11=Cliff Richard - Evergreen Tree
TTITLE12=The New Christy Minstrels - Cotton Fields
TTITLE13=Dana - All kinds of everything
TTITLE14=The Everly Brothers - All I have to do is dream
TTITLE15=Cascades - Rhythm of the rain
TTITLE16=Timi Yuro - Interlude
TTITLE17=The Brothers Four - Seven Daffodils
TTITLE18=Pete Seeger - Michael row the boat ashore
TTITLE19=The Brothers Four - We shall overcome
EXTD=
EXTT0=
EXTT1=
EXTT2=
EXTT3=
EXTT4=
EXTT5=
EXTT6=
EXTT7=
EXTT8=
EXTT9=
EXTT10=
EXTT11=
EXTT12=
EXTT13=
EXTT14=
EXTT15=
EXTT16=
EXTT17=
EXTT18=
EXTT19=
PLAYORDER=
